# AST/ASF file generated using VICON BodyLanguage
# -----------------------------------------------
:version 1.10
:name VICON
:units
  mass 1.0
  length 0.45
  angle deg
:documentation
   .ast/.asf automatically generated from VICON data using
   VICON BodyBuilder and BodyLanguage model FoxedUp or BRILLIANT.MOD
:root
   order TX TY TZ RX RY RZ
   axis XYZ
   position 0 0 0  
   orientation 0 0 0 
:bonedata
  begin
     id 1 
     name lhipjoint
     direction 0.650112 -0.723553 0.232005 
     length 2.45805 
     axis 0 0 0  XYZ
  end
  begin
     id 2 
     name lfemur
     direction 0.34202 -0.939693 0  
     length 7.00073  
     axis 0 0 20  XYZ
    dof rx ry rz
    limits (-160.0 20.0)
           (-70.0 70.0)
           (-60.0 70.0)
  end
  begin
     id 3 
     name ltibia
     direction 0.34202 -0.939693 0   
     length 7.8748   
     axis 0 0 20   XYZ
    dof rx
    limits (-10.0 170.0)
  end
  begin
     id 4 
     name lfoot
     direction 0.0542825 -0.14914 0.987325   
     length 1.75978   
     axis -90 7.62852e-016 20   XYZ
    dof rx rz
    limits (-45.0 90.0)
           (-70.0 20.0)
  end
  begin
     id 5 
     name ltoes
     direction 1.53509e-011 -4.21906e-011 1   
     length 0.893912   
     axis -90 7.62852e-016 20   XYZ
    dof rx
    limits (-90.0 20.0)
  end
  begin
     id 6 
     name rhipjoint
     direction -0.637897 -0.733345 0.235145   
     length 2.42522  
     axis 0 0 0  XYZ 
  end
  begin
     id 7 
     name rfemur
     direction -0.34202 -0.939693 0   
     length 7.02549   
     axis 0 0 -20   XYZ
    dof rx ry rz
    limits (-160.0 20.0)
           (-70.0 70.0)
           (-70.0 60.0)
  end
  begin
     id 8 
     name rtibia
     direction -0.34202 -0.939693 0   
     length 7.71512   
     axis 0 0 -20   XYZ
    dof rx
    limits (-10.0 170.0)
 end
 begin
     id 9 
     name rfoot
     direction -0.0822618 -0.226012 0.970645   
     length 1.90014  
     axis -90 -7.62852e-016 -20   XYZ
    dof rx rz
    limits (-45.0 90.0)
           (-20.0 70.0)
  end
  begin
     id 10 
     name rtoes
     direction -1.53542e-011 -4.21872e-011 1   
     length 0.957341   
     axis -90 -7.62852e-016 -20   XYZ
    dof rx
    limits (-90.0 20.0)
  end
  begin
     id 11 
     name lowerback
     direction -0.0022947 0.999774 -0.0211557   
     length 1.89909   
     axis 0 0 0   XYZ
    dof rx ry rz
    limits (-20.0 45.0)
           (-30.0 30.0)
           (-30.0 30.0)
  end
  begin
     id 12 
     name upperback
     direction 0.0107737 0.998635 0.0511027   
     length 1.8853   
     axis 0 0 0   XYZ
    dof rx ry rz
    limits (-20.0 45.0)
           (-30.0 30.0)
           (-30.0 30.0)
  end
  begin
     id 13 
     name thorax
     direction 0.011824 0.998136 0.0598754   
     length 1.88911   
     axis 0 0 0   XYZ
    dof rx ry rz
    limits (-20.0 45.0)
           (-30.0 30.0)
           (-30.0 30.0)
  end
  begin
     id 14 
     name lowerneck
     direction -0.0685355 0.990319 0.120714   
     length 1.91222   
     axis 0 0 0   XYZ
    dof rx ry rz
    limits (-20.0 45.0)
           (-30.0 30.0)
           (-30.0 30.0)
  end
  begin
     id 15 
     name upperneck
     direction 0.0886204 0.955665 -0.280805   
     length 1.92526   
     axis 0 0 0   XYZ
    dof rx ry rz
    limits (-20.0 45.0)
           (-30.0 30.0)
           (-30.0 30.0)
  end
  begin
     id 16
     name head
     direction 0.0233423 0.993502 -0.111393  
     length 1.96056  
     axis 0 0 0   XYZ
    dof rx ry rz
    limits (-20.0 45.0)
           (-30.0 30.0)
           (-30.0 30.0)
  end
  begin
     id 17 
     name lclavicle
     direction 0.941873 0.32922 0.0670041  
     length 3.31705  
     axis 0 0 0   XYZ
    dof ry rz
    limits (-20.0 10.0)
           (0.0 20.0)
  end
  begin
     id 18 
     name lhumerus
     direction 1 -4.4898e-011 3.38707e-028   
     length 5.29277   
     axis 180 -30 -90   XYZ
    dof rx ry rz
    limits (-60.0 90.0)
           (-90.0 90.0)
           (-90.0 90.0)
  end
  begin
     id 19
     name lradius
     direction 1 -4.48952e-011 1.63213e-028   
     length 2.85226   
     axis 180 -30 -90   XYZ
    dof rx
    limits (-10.0 170.0)
  end
  begin
     id 20
     name lwrist
     direction 1 -4.49001e-011 1.27856e-027   
     length 1.42613   
     axis -1.61767e-015 90 90   XYZ
    dof ry
    limits (-180.0 0.0)
 end
  begin
     id 21 
     name lhand
     direction 1 -4.48976e-011 2.55931e-027   
     length 0.602097   
     axis -1.63363e-015 90 90   XYZ
    dof rx rz
    limits (-90.0 90.0)
           (-45.0 45.0)
  end
  begin
     id 22 
     name lfingers
     direction 1 -4.48986e-011 5.11684e-027   
     length 0.485426   
     axis -3.26723e-015 90 90   XYZ
    dof rx
    limits (0.0 90.0)
  end
  begin
     id 23
     name lthumb
     direction 0.707107 -6.34915e-011 0.707107   
     length 0.696978   
     axis -90 45 -2.25915e-014   XYZ
    dof rx rz
    limits (-45.0 45.0)
           (-45.0 45.0)
  end
  begin
     id 24 
     name rclavicle
     direction -0.939974 0.327078 0.0973096   
     length 3.10337  
     axis 0 0 0   XYZ 
    dof ry rz
    limits (-10.0 20.0)
           (-20.0 0.0)
  end
  begin
     id 25 
     name rhumerus
     direction -1 -4.48975e-011 1.83745e-027  
     length 5.13304   
     axis 180 30 90   XYZ
    dof rx ry rz
    limits (-90.0 60.0)
           (-90.0 90.0)
           (-90.0 90.0)
  end
  begin
     id 26 
     name rradius
     direction -1 -4.48977e-011 7.1775e-029   
     length 2.74305   
     axis 180 30 90   XYZ
    dof rx
    limits (-10.0 170.0)
  end
  begin
     id 27 
     name rwrist
     direction -1 -4.48977e-011 1.27963e-027   
     length 1.37152   
     axis -1.61767e-015 -90 -90   XYZ
    dof ry
    limits (-180.0 0.0)
  end
  begin
     id 28
     name rhand
     direction -1 -4.4888e-011 2.56782e-027   
     length 0.767976   
     axis -1.63363e-015 -90 -90   XYZ
    dof rx rz
    limits (-90.0 90.0)
           (-45.0 45.0)
  end
  begin
     id 29
     name rfingers
     direction -1 -4.48947e-011 5.12384e-027   
     length 0.619162   
     axis -3.26723e-015 -90 -90   XYZ
    dof rx
    limits (0.0 90.0)
  end
  begin
     id 30
     name rthumb
     direction -0.707107 -6.34857e-011 0.707107   
     length 0.888997   
     axis -90 -45 2.25915e-014   XYZ
    dof rx rz
    limits (-45.0 45.0)
           (-45.0 45.0)
  end
:hierarchy
  begin
    root lhipjoint rhipjoint lowerback
    lhipjoint lfemur
    lfemur ltibia
    ltibia lfoot
    lfoot ltoes
    rhipjoint rfemur
    rfemur rtibia
    rtibia rfoot
    rfoot rtoes
    lowerback upperback
    upperback thorax
    thorax lowerneck lclavicle rclavicle
    lowerneck upperneck
    upperneck head
    lclavicle lhumerus
    lhumerus lradius
    lradius lwrist
    lwrist lhand lthumb
    lhand lfingers
    rclavicle rhumerus
    rhumerus rradius
    rradius rwrist
    rwrist rhand rthumb
    rhand rfingers
  end

#!OML:ASF F:\VICON\USERDATA\INSTALL\rory3\rory3.ASF
:FULLY-SPECIFIED
:DEGREES
161
root 0.295265 17.0145 -0.517261 1.05806 3.85292 -2.02627
lowerback 3.25166 -0.111362 -1.09895
upperback 2.14277 -0.175182 1.57557
thorax 0.382921 -0.10762 2.23719
lowerneck -3.93425 -11.3254 -18.3549
upperneck 11.7736 -16.9411 21.2014
head 7.72952 -7.94812 8.35639
rclavicle -1.02747e-014 9.24349e-015
rhumerus -38.6993 0.176365 -73.4195
rradius 121.031
rwrist 1.14174
rhand -38.6182 11.7626
rfingers 7.12502
rthumb -11.6355 -17.8943
lclavicle -1.02747e-014 9.24349e-015
lhumerus -27.7045 -22.7864 85.2802
lradius 109.134
lwrist 7.20302
lhand -23.8485 21.6182
lfingers 7.12502
lthumb 2.6237 51.5819
rfemur -9.01677 4.14736 20.8962
rtibia 28.1622
rfoot -18.7126 -12.9287
rtoes -18.1248
lfemur -13.4987 -10.0685 -16.4229
ltibia 33.4652
lfoot -20.2979 2.68084
ltoes -15.2541
162
root 0.294744 17.001 -0.526206 0.929078 3.95142 -1.98011
lowerback 3.32127 -0.122211 -1.16654
upperback 2.12304 -0.191502 1.59595
thorax 0.324962 -0.115863 2.29692
lowerneck -3.84599 -11.3275 -18.4073
upperneck 11.9595 -16.9775 21.1621
head 7.7813 -7.97114 8.35385
rclavicle -1.59028e-014 -3.18055e-015
rhumerus -37.761 2.0619 -74.5472
rradius 121.851
rwrist 2.38715
rhand -38.4431 11.8055
rfingers 7.12502
rthumb -11.4666 -17.8609
lclavicle -1.59028e-014 -3.18055e-015
lhumerus -26.6253 -24.6268 85.5643
lradius 110.157
lwrist 6.29957
lhand -23.6815 21.0585
lfingers 7.12502
lthumb 2.78494 51.0201
rfemur -9.18069 3.79349 20.8229
rtibia 28.7287
rfoot -19.02 -12.7323
rtoes -17.8309
lfemur -13.5805 -9.91315 -16.4776
ltibia 33.8154
lfoot -20.402 2.33004
ltoes -14.5955
163
root 0.294752 16.987 -0.539762 0.870715 3.9116 -1.88745
lowerback 3.29668 -0.083931 -1.27996
upperback 2.12734 -0.143404 1.56222
thorax 0.341071 -0.0928764 2.32455
lowerneck -3.82308 -11.3371 -18.3587
upperneck 12.1537 -17.0292 21.1451
head 7.84414 -7.99153 8.33705
rclavicle 8.69683e-016 1.85864e-014
rhumerus -36.8295 3.90687 -75.5924
rradius 122.655
rwrist 3.5298
rhand -38.4767 12.2773
rfingers 7.12502
rthumb -11.499 -17.3873
lclavicle 8.69683e-016 1.85864e-014
lhumerus -25.3479 -26.6055 85.6229
lradius 110.962
lwrist 5.31124
lhand -23.833 20.5915
lfingers 7.12502
lthumb 2.63866 50.5549
rfemur -9.45179 3.61946 20.6893
rtibia 29.2578
rfoot -19.3349 -12.5635
rtoes -17.2225
lfemur -13.7583 -9.69896 -16.5765
ltibia 34.1543
lfoot -20.4337 2.16173
ltoes -14.4592
164
root 0.297242 16.9704 -0.552884 0.740095 3.95997 -1.88171
lowerback 3.28751 -0.102883 -1.30237
upperback 2.1713 -0.169421 1.57652
thorax 0.392776 -0.107084 2.35255
lowerneck -3.81541 -11.3192 -18.3653
upperneck 12.32 -17.029 21.1245
head 7.89439 -7.9897 8.33529
rclavicle 1.65116e-014 2.21645e-014
rhumerus -35.7797 5.94013 -76.5227
rradius 123.3
rwrist 4.14522
rhand -38.3026 13.4984
rfingers 7.12502
rthumb -11.3312 -16.1755
lclavicle 1.65116e-014 2.21645e-014
lhumerus -23.9399 -28.4413 85.5773
lradius 111.766
lwrist 4.74235
lhand -24.04 20.319
lfingers 7.12502
lthumb 2.43872 50.2848
rfemur -9.62626 3.30023 20.639
rtibia 29.7631
rfoot -19.6305 -12.3689
rtoes -17.4688
lfemur -13.8959 -9.58866 -16.6063
ltibia 34.5356
lfoot -20.5131 2.07088
ltoes -14.9156
165
root 0.297906 16.9532 -0.563514 0.577113 4.03114 -1.8727
lowerback 3.31295 -0.125084 -1.35585
upperback 2.19326 -0.200652 1.61218
thorax 0.403119 -0.123766 2.42031
lowerneck -3.78955 -11.3083 -18.4135
upperneck 12.5144 -17.0338 21.0577
head 7.9505 -7.99506 8.3242
rclavicle 9.56651e-016 8.15017e-015
rhumerus -34.4231 8.09325 -77.3849
rradius 123.83
rwrist 4.477
rhand -37.9828 14.4399
rfingers 7.12502
rthumb -11.0226 -15.2507
lclavicle 9.56651e-016 8.15017e-015
lhumerus -22.4049 -30.2131 85.4479
lradius 112.497
lwrist 4.64284
lhand -24.2386 19.8723
lfingers 7.12502
lthumb 2.24689 49.8402
rfemur -9.73988 3.02484 20.6006
rtibia 30.2546
rfoot -19.9281 -12.1686
rtoes -17.5603
lfemur -13.999 -9.40068 -16.6244
ltibia 34.9607
lfoot -20.7134 1.87178
ltoes -15.5234
